<svg xmlns="http://www.w3.org/2000/svg" viewBox="0 0 80 80" id="mobile-call"><path d="M64 70V10c0-2.757-2.243-5-5-5H21c-2.757 0-5 2.243-5 5v60c0 2.757 2.243 5 5 5h38c2.757 0 5-2.243 5-5zm-46 0V10c0-1.654 1.346-3 3-3h38c1.654 0 3 1.346 3 3v60c0 1.654-1.346 3-3 3H21c-1.654 0-3-1.346-3-3z"></path><path d="M57 13H23a1 1 0 0 0-1 1v46a1 1 0 0 0 1 1h34a1 1 0 0 0 1-1V14a1 1 0 0 0-1-1zm-1 46H24V15h32v44zm-15.979 4c-2.206 0-4 1.794-4 4s1.794 4 4 4 4-1.794 4-4-1.794-4-4-4zm0 6c-1.103 0-2-.897-2-2s.897-2 2-2 2 .897 2 2-.897 2-2 2zM36.979 9h6.042v2h-6.042z"></path><path d="M34.602 41.087c2.547 2.547 5.37 4.535 7.949 5.596 1.338.55 2.554.826 3.607.826 1.194 0 2.176-.354 2.882-1.06l2.057-2.057c1.042-1.042.939-2.842-.231-4.011l-2.829-2.829a3.2 3.2 0 0 0-1.965-.943c-.778-.07-1.525.19-2.046.712l-.852.857c-.298.139-1.848-.277-3.617-2.045-1.769-1.77-2.185-3.324-2.062-3.595l.874-.874c1.042-1.042.939-2.842-.231-4.011l-2.829-2.829c-1.168-1.169-2.969-1.273-4.011-.23L29.24 26.65c-1.326 1.327-1.408 3.631-.232 6.49 1.062 2.58 3.048 5.402 5.593 7.947zm-3.947-13.023 2.057-2.057a.535.535 0 0 1 .382-.136c.027 0 .052.001.073.003.254.022.519.155.728.364l2.829 2.829c.416.416.456.958.23 1.183l-.873.874c-1.432 1.431-.046 4.314 2.062 6.423 2.108 2.108 4.99 3.493 6.423 2.062l.874-.874c.14-.14.346-.143.455-.133.253.023.519.155.728.364l2.829 2.829c.209.209.341.474.364.728.01.11.005.316-.133.455l-2.057 2.057c-.7.698-2.311.622-4.314-.201-2.34-.964-4.932-2.796-7.296-5.16-2.362-2.363-4.194-4.954-5.157-7.296-.825-2.003-.901-3.616-.204-4.314z"></path></svg>